<?xml version="1.0" encoding="UTF-8"?>
<svg width="24px" height="19px" viewBox="0 0 24 19" version="1.1" xmlns="http://www.w3.org/2000/svg" xmlns:xlink="http://www.w3.org/1999/xlink">
    <!-- Generator: Sketch 51.2 (57519) - http://www.bohemiancoding.com/sketch -->
    <title>Asset 08</title>
    <desc>Created with Sketch.</desc>
    <defs></defs>
    <g id="Pronet" stroke="none" stroke-width="1" fill="none" fill-rule="evenodd">
        <g id="Discover-landing-4" transform="translate(-123.000000, -595.000000)">
            <g id="Bottom-nav" transform="translate(0.000000, 584.000000)">
                <g id="Request-Off" transform="translate(90.000000, 0.000000)">
                    <g id="Asset-08" transform="translate(33.000000, 8.000000)">
                        <g id="Group">
                            <polygon id="Shape" points="0 0 24 0 24 24 0 24"></polygon>
                            <g id="users" transform="translate(0.000000, 3.000000)" fill="#757575">
                                <path d="M18.4335484,10.8387097 C16.2956719,10.8387097 14.5625806,9.10561839 14.5625806,6.96774194 C14.5625806,4.82986548 16.2956719,3.09677419 18.4335484,3.09677419 C20.5714248,3.09677419 22.3045161,4.82986548 22.3045161,6.96774194 C22.3045161,9.10561839 20.5714248,10.8387097 18.4335484,10.8387097 L18.4335484,10.8387097 Z M18.4335484,4.64516129 C17.1508225,4.64516129 16.1109677,5.68501606 16.1109677,6.96774194 C16.1109677,8.25046781 17.1508225,9.29032258 18.4335484,9.29032258 C19.7162743,9.29032258 20.756129,8.25046781 20.756129,6.96774194 C20.756129,5.68501606 19.7162743,4.64516129 18.4335484,4.64516129 L18.4335484,4.64516129 Z M11.8451613,14.9574194 C11.0688073,13.3287349 9.39777866,12.3182039 7.59483871,12.3870968 C4.10322581,12.3870968 2.70193548,15.2152258 2.30709677,18.5806452 L0.766451613,18.5806452 C1.26967742,14.3806452 3.2516129,10.8387097 7.59483871,10.8387097 C9.71933138,10.7675195 11.7170407,11.8477623 12.8206452,13.6645161 C12.4336751,14.0451701 12.1049756,14.4808275 11.8451613,14.9574194 L11.8451613,14.9574194 Z M7.59483871,9.29032258 C5.02938697,9.29032258 2.94967742,7.21061303 2.94967742,4.64516129 C2.94967742,2.07970955 5.02938697,0 7.59483871,0 C10.1602905,0 12.24,2.07970955 12.24,4.64516129 C12.24,7.21061303 10.1602905,9.29032258 7.59483871,9.29032258 L7.59483871,9.29032258 Z M7.59483871,1.5483871 C5.88453755,1.5483871 4.49806452,2.93486013 4.49806452,4.64516129 C4.49806452,6.35546245 5.88453755,7.74193548 7.59483871,7.74193548 C9.30513987,7.74193548 10.6916129,6.35546245 10.6916129,4.64516129 C10.6916129,2.93486013 9.30513987,1.5483871 7.59483871,1.5483871 L7.59483871,1.5483871 Z M18.4335484,12.3870968 C21.84,12.3870968 23.3729032,15.2268387 23.7522581,18.5806452 L22.2193548,18.5806452 C21.9406452,16.056 20.9341935,13.9354839 18.4335484,13.9354839 C15.9329032,13.9354839 14.9264516,16.0575484 14.6477419,18.5806452 L13.1148387,18.5806452 C13.4941935,15.2276129 15.0270968,12.3870968 18.4335484,12.3870968 L18.4335484,12.3870968 Z"></path>
                            </g>
                        </g>
                    </g>
                </g>
            </g>
        </g>
    </g>
</svg>