<?xml version="1.0" encoding="UTF-8"?>
<svg width="18px" height="26px" viewBox="0 0 18 26" version="1.1" xmlns="http://www.w3.org/2000/svg" xmlns:xlink="http://www.w3.org/1999/xlink">
    <!-- Generator: Sketch 51.2 (57519) - http://www.bohemiancoding.com/sketch -->
    <title>Asset 07</title>
    <desc>Created with Sketch.</desc>
    <defs></defs>
    <g id="Pronet" stroke="none" stroke-width="1" fill="none" fill-rule="evenodd">
        <g id="Request-Receive-Accepted" transform="translate(-36.000000, -591.000000)">
            <g id="Bottom-nav" transform="translate(0.000000, 584.000000)">
                <g id="Discover">
                    <g id="Asset-07" transform="translate(33.000000, 8.000000)">
                        <g id="Group">
                            <polygon id="Shape" points="0 0 24 0 24 24 0 24"></polygon>
                            <g transform="translate(4.000000, 0.000000)" id="Shape" stroke="#757575" stroke-width="2">
                                <g>
                                    <path d="M0.0275862069,7.69655172 C0.0275862069,11.8896552 4.82758621,21.0206897 7.6137931,21.0206897 C10.3448276,21.0206897 15.2,11.862069 15.2,7.69655172 C15.2,3.53103448 11.8068966,0.110344828 7.6137931,0.110344828 C3.42068966,0.110344828 0.0275862069,3.50344828 0.0275862069,7.69655172 L0.0275862069,7.69655172 Z"></path>
                                    <path d="M10.9517241,6.95172414 C11.2275862,9.15862069 9.37931034,10.9793103 7.2,10.7034483 C5.71034483,10.5103448 4.49655172,9.29655172 4.30344828,7.80689655 C4.02758621,5.6 5.87586207,3.77931034 8.05517241,4.05517241 C9.54482759,4.27586207 10.7586207,5.46206897 10.9517241,6.95172414 L10.9517241,6.95172414 Z"></path>
                                </g>
                                <path d="M15.2,20.7711549 C15.2,22.4806694 11.8068966,23.8593102 7.6137931,23.8593102 C3.42068966,23.8593102 0.0275862069,22.4806694 0.0275862069,20.7711549 C0.0275862069,19.6958152 1.40689655,18.7307666 3.47586207,18.1793103"></path>
                            </g>
                        </g>
                    </g>
                </g>
            </g>
        </g>
    </g>
</svg>