<?xml version="1.0" encoding="UTF-8"?>
<svg width="28px" height="40px" viewBox="0 0 28 40" version="1.1" xmlns="http://www.w3.org/2000/svg" xmlns:xlink="http://www.w3.org/1999/xlink">
    <!-- Generator: Sketch 51.2 (57519) - http://www.bohemiancoding.com/sketch -->
    <title>place</title>
    <desc>Created with Sketch.</desc>
    <defs></defs>
    <g id="Pronet" stroke="none" stroke-width="1" fill="none" fill-rule="evenodd">
        <g id="Discover-location-setting-agreement" transform="translate(-179.000000, -199.000000)" fill="#4D5EBA">
            <g id="place" transform="translate(179.000000, 199.000000)">
                <path d="M14,0 C6.2,0 0,6.2 0,14 C0,24.4 14,40 14,40 C14,40 28,24.4 28,14 C28,6.2 21.8,0 14,0 L14,0 Z M14,19 C11.2,19 9,16.8 9,14 C9,11.2 11.2,9 14,9 C16.8,9 19,11.2 19,14 C19,16.8 16.8,19 14,19 L14,19 Z" id="Shape"></path>
            </g>
        </g>
    </g>
</svg>