<?xml version="1.0" encoding="UTF-8"?>
<svg width="76px" height="109px" viewBox="0 0 76 109" version="1.1" xmlns="http://www.w3.org/2000/svg" xmlns:xlink="http://www.w3.org/1999/xlink">
    <!-- Generator: Sketch 51.2 (57519) - http://www.bohemiancoding.com/sketch -->
    <title>place copy</title>
    <desc>Created with Sketch.</desc>
    <defs></defs>
    <g id="Pronet" stroke="none" stroke-width="1" fill="none" fill-rule="evenodd">
        <g id="Discover-landing-3" transform="translate(-142.000000, -72.000000)" fill="#4D5EBA">
            <g id="Dialog">
                <g id="Image">
                    <g id="place-copy" transform="translate(142.000000, 72.000000)">
                        <path d="M38,0 C16.8285714,0 0,16.895 0,38.15 C0,66.49 38,109 38,109 C38,109 76,66.49 76,38.15 C76,16.895 59.1714286,0 38,0 L38,0 Z M38,51.775 C30.4,51.775 24.4285714,45.78 24.4285714,38.15 C24.4285714,30.52 30.4,24.525 38,24.525 C45.6,24.525 51.5714286,30.52 51.5714286,38.15 C51.5714286,45.78 45.6,51.775 38,51.775 L38,51.775 Z" id="Shape"></path>
                    </g>
                </g>
            </g>
        </g>
    </g>
</svg>