<?xml version="1.0" encoding="UTF-8"?>
<svg width="24px" height="24px" viewBox="0 0 24 24" version="1.1" xmlns="http://www.w3.org/2000/svg" xmlns:xlink="http://www.w3.org/1999/xlink">
    <!-- Generator: Sketch 51.2 (57519) - http://www.bohemiancoding.com/sketch -->
    <title>unknown-4</title>
    <desc>Created with Sketch.</desc>
    <defs></defs>
    <g id="Pronet" stroke="none" stroke-width="1" fill="none" fill-rule="evenodd">
        <g id="Profile-Tags-Edit" transform="translate(-318.000000, -490.000000)" fill="#BDBDBD">
            <g id="Group-2" transform="translate(18.000000, 257.000000)">
                <g id="Input-Tags-Added" transform="translate(0.000000, 223.000000)">
                    <g id="unknown-4" transform="translate(300.000000, 10.000000)">
                        <path d="M12,0 C5.4,0 0,5.4 0,12 C0,18.6 5.4,24 12,24 C18.6,24 24,18.6 24,12 C24,5.4 18.6,0 12,0 L12,0 Z M12,21.6 C6.72,21.6 2.4,17.28 2.4,12 C2.4,6.72 6.72,2.4 12,2.4 C17.28,2.4 21.6,6.72 21.6,12 C21.6,17.28 17.28,21.6 12,21.6 L12,21.6 Z M7.2,13.2 L16.8,13.2 L16.8,10.8 L7.2,10.8 L7.2,13.2 L7.2,13.2 Z" id="Shape"></path>
                    </g>
                </g>
            </g>
        </g>
    </g>
</svg>